<svg xmlns="http://www.w3.org/2000/svg" viewBox="0 0 960 540" width="100%">
  <rect width="960" height="540" fill="#ffffff"/>
  <g opacity="0.08">
    <line x1="0" y1="60" x2="960" y2="60" stroke="#000" stroke-width="0.5"/>
    <line x1="0" y1="120" x2="960" y2="120" stroke="#000" stroke-width="0.5"/>
    <line x1="0" y1="180" x2="960" y2="180" stroke="#000" stroke-width="0.5"/>
    <line x1="0" y1="240" x2="960" y2="240" stroke="#000" stroke-width="0.5"/>
    <line x1="0" y1="300" x2="960" y2="300" stroke="#000" stroke-width="0.5"/>
    <line x1="0" y1="360" x2="960" y2="360" stroke="#000" stroke-width="0.5"/>
    <line x1="0" y1="420" x2="960" y2="420" stroke="#000" stroke-width="0.5"/>
    <line x1="0" y1="480" x2="960" y2="480" stroke="#000" stroke-width="0.5"/>
    <line x1="60" y1="0" x2="60" y2="540" stroke="#000" stroke-width="0.5"/>
    <line x1="120" y1="0" x2="120" y2="540" stroke="#000" stroke-width="0.5"/>
    <line x1="180" y1="0" x2="180" y2="540" stroke="#000" stroke-width="0.5"/>
    <line x1="240" y1="0" x2="240" y2="540" stroke="#000" stroke-width="0.5"/>
    <line x1="300" y1="0" x2="300" y2="540" stroke="#000" stroke-width="0.5"/>
    <line x1="360" y1="0" x2="360" y2="540" stroke="#000" stroke-width="0.5"/>
    <line x1="420" y1="0" x2="420" y2="540" stroke="#000" stroke-width="0.5"/>
    <line x1="480" y1="0" x2="480" y2="540" stroke="#000" stroke-width="0.5"/>
    <line x1="540" y1="0" x2="540" y2="540" stroke="#000" stroke-width="0.5"/>
    <line x1="600" y1="0" x2="600" y2="540" stroke="#000" stroke-width="0.5"/>
    <line x1="660" y1="0" x2="660" y2="540" stroke="#000" stroke-width="0.5"/>
    <line x1="720" y1="0" x2="720" y2="540" stroke="#000" stroke-width="0.5"/>
    <line x1="780" y1="0" x2="780" y2="540" stroke="#000" stroke-width="0.5"/>
    <line x1="840" y1="0" x2="840" y2="540" stroke="#000" stroke-width="0.5"/>
    <line x1="900" y1="0" x2="900" y2="540" stroke="#000" stroke-width="0.5"/>
  </g>
  <rect x="60" y="60" width="6" height="420" fill="#e63322"/>
  <text x="100" y="140" font-family="Arial Black, sans-serif" font-size="120" font-weight="900" fill="#1a1a1a">01</text>
  <text x="60" y="280" font-family="Arial, sans-serif" font-size="48" font-weight="800" fill="#1a1a1a">ARCHITECT</text>
  <text x="60" y="330" font-family="Arial, sans-serif" font-size="20" font-weight="400" fill="#666666">Bauhaus × Swiss Design</text>
  <rect x="60" y="350" width="360" height="2" fill="#e63322"/>
  <text x="60" y="380" font-family="Arial, sans-serif" font-size="16" font-weight="400" fill="#666666">Precision. Clarity. International order.</text>
  <text x="60" y="410" font-family="Arial, sans-serif" font-size="16" font-weight="400" fill="#666666">Grid-visible. Asymmetric. Red accent.</text>
  <rect x="780" y="60" width="120" height="420" fill="#f5f5f5" stroke="#1a1a1a" stroke-width="1"/>
  <text x="840" y="280" font-family="Arial, sans-serif" font-size="14" font-weight="400" fill="#666" text-anchor="middle">Archivo Black</text>
  <text x="840" y="300" font-family="Arial, sans-serif" font-size="14" font-weight="400" fill="#666" text-anchor="middle">Nunito Sans</text>
</svg>
