<svg xmlns="http://www.w3.org/2000/svg" viewBox="0 0 960 540" width="100%">
  <rect width="960" height="540" fill="#0a0a0a"/>
  <g opacity="0.03">
    <line x1="0" y1="0" x2="960" y2="540" stroke="#fff" stroke-width="0.5"/>
    <line x1="960" y1="0" x2="0" y2="540" stroke="#fff" stroke-width="0.5"/>
    <line x1="480" y1="0" x2="480" y2="540" stroke="#fff" stroke-width="0.5"/>
    <line x1="0" y1="270" x2="960" y2="270" stroke="#fff" stroke-width="0.5"/>
    <line x1="240" y1="0" x2="240" y2="540" stroke="#fff" stroke-width="0.5"/>
    <line x1="720" y1="0" x2="720" y2="540" stroke="#fff" stroke-width="0.5"/>
    <line x1="0" y1="135" x2="960" y2="135" stroke="#fff" stroke-width="0.5"/>
    <line x1="0" y1="405" x2="960" y2="405" stroke="#fff" stroke-width="0.5"/>
  </g>
  <text x="80" y="140" font-family="Arial, sans-serif" font-size="88" font-weight="700" fill="#ffffff">VOLT</text>
  <rect x="80" y="155" width="60" height="4" fill="#00e5ff" rx="2"/>
  <rect x="150" y="155" width="60" height="4" fill="#ff2d55" rx="2"/>
  <text x="80" y="200" font-family="Arial, sans-serif" font-size="20" font-weight="400" fill="#888">Startup pitch. High energy. Electric.</text>
  <text x="80" y="230" font-family="Arial, sans-serif" font-size="16" font-weight="400" fill="#888">Cyan × Pink. Dark canvas. Fast rhythm.</text>
  <rect x="80" y="260" width="32" height="32" fill="#00e5ff" rx="4" opacity="0.9"/>
  <rect x="120" y="260" width="32" height="32" fill="#ff2d55" rx="4" opacity="0.9"/>
  <rect x="560" y="80" width="320" height="380" fill="#141414" stroke="#00e5ff" stroke-width="1" opacity="0.4" rx="4"/>
  <text x="580" y="120" font-family="Arial, sans-serif" font-size="24" font-weight="700" fill="#00e5ff">Growth Metrics</text>
  <text x="580" y="160" font-family="Arial, sans-serif" font-size="56" font-weight="700" fill="#ffffff">$4.2M</text>
  <text x="580" y="190" font-family="Arial, sans-serif" font-size="14" font-weight="400" fill="#888">ARR / Q3 2026</text>
  <line x1="580" y1="210" x2="860" y2="210" stroke="#00e5ff" stroke-width="0.5" opacity="0.3"/>
  <text x="580" y="240" font-family="Arial, sans-serif" font-size="56" font-weight="700" fill="#ff2d55">+186%</text>
  <text x="580" y="270" font-family="Arial, sans-serif" font-size="14" font-weight="400" fill="#888">YoY Growth</text>
  <text x="880" y="460" font-family="Arial, sans-serif" font-size="12" font-weight="400" fill="#888" text-anchor="end">Clash Display + Satoshi</text>
</svg>
